# xmcd CD database file
#
# Track frame offsets:
#	150
#	14640
#	34026
#	50596
#	80903
#	100570
#	118587
#	135254
#	149537
#	163797
#	183778
#	198477
#
# Disc length: 3075 seconds
#
# Revision: 21
# Processed by: cddbd v1.5.2PL0 Copyright (c) Steve Scherf et al.
# Submitted via: FreeDB 13.2
#
DISCID=a20c010c
DTITLE=Andy Broad - Every Penny Of The Deal
DYEAR=20
DGENRE=Acoustic Blues
TTITLE0=Woman I'm Loving
TTITLE1=Ain't Scared
TTITLE2=Paper
TTITLE3=This Crying Has To End
TTITLE4=Holding These Feelings
TTITLE5=One More Day
TTITLE6=Walk Outside
TTITLE7=Shake
TTITLE8=Too Late
TTITLE9=Every Penny Of The Deal
TTITLE10=Mosquito Hunt
TTITLE11=Pretty Nose
EXTD=(c) (p) Andy Broad - 2015 \n\nAndy Broad - Guitar Vocals\nSandy Walker - 
EXTD=Hammand Organ\n
EXTT0=Word and Music - Andy Broad
EXTT1=Word and Music - Andy Broad
EXTT2=Word and Music - Andy Broad
EXTT3=Word and Music - Andy Broad
EXTT4=Word and Music - Andy Broad
EXTT5=Word and Music - Andy Broad
EXTT6=Word and Music - Andy Broad
EXTT7=Word and Music - Sally Strawberry
EXTT8=Word and Music - Andy Broad
EXTT9=Word and Music - Andy Broad
EXTT10=Word and Music - Andy Broad
EXTT11=Word and Music - Andy Broad
PLAYORDER=
